<?xml version="1.0" encoding="utf-8"?>
<!-- Generator: Adobe Illustrator 19.0.0, SVG Export Plug-In . SVG Version: 6.00 Build 0)  -->
<svg version="1.1" id="Layer_1" xmlns="http://www.w3.org/2000/svg" xmlns:xlink="http://www.w3.org/1999/xlink" x="0px" y="0px"
	 viewBox="0 0 480 96.2" style="enable-background:new 0 0 480 96.2;" xml:space="preserve">
<style type="text/css">
	.st0{fill:#C2E6FF;}
	.st1{fill:#0098FF;}
	.st2{opacity:0.24;fill:#0098FF;}
</style>
<path id="XMLID_2_" class="st0" d="M-31.9,1.5c-17.1-4-59.8-1.8-101.9,31.6c-31.2,24.7-81.1,43.1-157.1,19
	c-89.5-28.5-180-9.2-221,43.2v1h480V1.5z"/>
<rect id="XMLID_68_" x="-453.9" y="198" class="st1" width="240.2" height="37.9"/>
<rect id="XMLID_1_" x="-624.4" y="-91.3" class="st2" width="54" height="63"/>
<image style="overflow:visible;" width="905" height="264" id="XMLID_4_" xlink:href="3B8928A.jpg"  transform="matrix(0.291 0 0 0.291 -403.8018 -129.6994)">
</image>
<image style="overflow:visible;" width="105" height="106" id="XMLID_6_" xlink:href="3B8928E.jpg"  transform="matrix(1 0 0 1 -151.9117 -138.7822)">
</image>
<path id="XMLID_8_" class="st0" d="M480,1.5c-17.1-4-59.8-1.8-101.9,31.6C346.9,57.8,297,76.2,221,52C131.5,23.6,41,42.9,0,95.2v1
	h480V1.5z"/>
</svg>
