<?xml version="1.0" encoding="utf-8"?>
<!-- Generator: Adobe Illustrator 19.0.0, SVG Export Plug-In . SVG Version: 6.00 Build 0)  -->
<svg version="1.1" id="Layer_1" xmlns="http://www.w3.org/2000/svg" xmlns:xlink="http://www.w3.org/1999/xlink" x="0px" y="0px"
	 viewBox="0 0 40 40" style="enable-background:new 0 0 40 40;" xml:space="preserve">
<style type="text/css">
	.st0{fill:#FFFFFF;}
</style>
<path id="XMLID_9_" class="st0" d="M0,19.2c0.1-0.7,0.2-1.5,0.3-2.2c0.5-2.9,1.6-5.5,3.2-7.8C6,5.6,9.3,3.1,13.4,1.6
	c2.8-1,5.7-1.3,8.6-1c3.7,0.3,7,1.6,9.9,3.8c3.6,2.7,6,6.2,7.3,10.4c0.8,2.7,1,5.6,0.6,8.4c-0.8,5.6-3.6,10-8,13.4
	c-1.6,1.2-3.4,2.1-5.3,2.8c-0.9,0.3-1.5-0.1-1.5-1c0-1.7,0-3.5,0-5.2c0-0.9-0.1-1.7-0.4-2.5c-0.2-0.5-0.5-0.9-0.8-1.3
	c0.7-0.1,1.5-0.2,2.3-0.4c2-0.5,3.9-1.4,5.1-3.2c0.9-1.3,1.3-2.8,1.5-4.3c0.1-1.2,0.2-2.4,0-3.5c-0.3-1.3-0.8-2.5-1.7-3.5
	c-0.2-0.2-0.2-0.3-0.1-0.6c0.6-1.6,0.4-3.3-0.3-4.8c0-0.1-0.2-0.2-0.3-0.2c-0.7-0.1-1.4,0.1-2,0.4c-1,0.5-2,1-3,1.5
	c-0.2,0.1-0.4,0.1-0.6,0.1c-3.1-0.8-6.2-0.8-9.3,0c-0.2,0-0.4,0-0.6-0.1c-1.3-0.8-2.6-1.5-4.1-1.8c0,0,0,0-0.1,0
	C9.6,8.6,9.5,8.7,9.2,9.6c-0.4,1.4-0.5,2.8,0,4.3c0,0.1,0,0.3-0.1,0.4c-1.7,1.9-2.1,4.2-1.8,6.6c0.1,1.4,0.5,2.8,1.1,4.1
	c0.9,1.8,2.4,2.9,4.3,3.6c1.1,0.4,2.3,0.5,3.4,0.8c0.1,0,0.1,0,0.1,0c-0.3,0.5-0.6,1.1-0.9,1.6c-0.1,0.2-0.2,0.4-0.2,0.6
	c0,0.4-0.2,0.6-0.6,0.7c-1.3,0.3-2.5,0.6-3.7-0.2c-0.6-0.4-1.1-0.9-1.5-1.6c-0.6-1-1.4-1.7-2.5-2c-0.4-0.1-0.9-0.1-1.3-0.1
	c-0.3,0-0.3,0.2-0.2,0.5C5.6,29,5.8,29.3,6,29.4C7.1,30,7.7,31,8.1,32.1c0.3,0.6,0.5,1.2,1.1,1.7c0.8,0.8,1.9,1,2.9,1.1
	c0.9,0,1.9,0,2.9,0c0,0.6,0,1.2,0,1.9c0,0.5,0,1,0,1.5c0,0.9-0.6,1.4-1.5,1.1c-3-1-5.6-2.6-7.7-4.8c-2.1-2.2-3.7-4.7-4.7-7.5
	c-0.6-1.6-0.9-3.3-1-5c0-0.2,0-0.3-0.1-0.5C0,20.8,0,20,0,19.2z"/>
</svg>
