<?xml version="1.0" encoding="utf-8"?>
<!-- Generator: Adobe Illustrator 19.0.0, SVG Export Plug-In . SVG Version: 6.00 Build 0)  -->
<svg version="1.1" id="Layer_1" xmlns="http://www.w3.org/2000/svg" xmlns:xlink="http://www.w3.org/1999/xlink" x="0px" y="0px"
	 viewBox="0 0 60.1 40.5" style="enable-background:new 0 0 60.1 40.5;" xml:space="preserve">
<style type="text/css">
	.st0{fill:#252525;}
</style>
<g id="XMLID_43_">
	<path id="XMLID_47_" class="st0" d="M47.4,32.2H4.2C1.9,32.2,0,34,0,36.3s1.9,4.2,4.2,4.2h43.3c2.3,0,4.2-1.9,4.2-4.2
		S49.7,32.2,47.4,32.2z"/>
	<path id="XMLID_48_" class="st0" d="M51.7,16.1H16c-2.3,0-4.2,1.9-4.2,4.2s1.9,4.2,4.2,4.2h35.7c2.3,0,4.2-1.9,4.2-4.2
		S54,16.1,51.7,16.1z"/>
	<path id="XMLID_49_" class="st0" d="M56,0h-28c-2.3,0-4.2,1.9-4.2,4.2s1.9,4.2,4.2,4.2h28c2.3,0,4.2-1.9,4.2-4.2S58.2,0,56,0z"/>
</g>
</svg>
